<?xml version="1.0" encoding="UTF-8"?>
<svg width="600" height="400" viewBox="0 0 600 400" fill="none" xmlns="http://www.w3.org/2000/svg">
  <!-- Background with gradient -->
  <rect width="600" height="400" rx="10" fill="url(#paint0_linear)" />
  
  <!-- Map-like grid pattern -->
  <path d="M100 50H500" stroke="#2563EB" stroke-opacity="0.1" stroke-width="1" />
  <path d="M100 100H500" stroke="#2563EB" stroke-opacity="0.1" stroke-width="1" />
  <path d="M100 150H500" stroke="#2563EB" stroke-opacity="0.1" stroke-width="1" />
  <path d="M100 200H500" stroke="#2563EB" stroke-opacity="0.1" stroke-width="1" />
  <path d="M100 250H500" stroke="#2563EB" stroke-opacity="0.1" stroke-width="1" />
  <path d="M100 300H500" stroke="#2563EB" stroke-opacity="0.1" stroke-width="1" />
  <path d="M100 350H500" stroke="#2563EB" stroke-opacity="0.1" stroke-width="1" />
  
  <path d="M100 50V350" stroke="#2563EB" stroke-opacity="0.1" stroke-width="1" />
  <path d="M150 50V350" stroke="#2563EB" stroke-opacity="0.1" stroke-width="1" />
  <path d="M200 50V350" stroke="#2563EB" stroke-opacity="0.1" stroke-width="1" />
  <path d="M250 50V350" stroke="#2563EB" stroke-opacity="0.1" stroke-width="1" />
  <path d="M300 50V350" stroke="#2563EB" stroke-opacity="0.1" stroke-width="1" />
  <path d="M350 50V350" stroke="#2563EB" stroke-opacity="0.1" stroke-width="1" />
  <path d="M400 50V350" stroke="#2563EB" stroke-opacity="0.1" stroke-width="1" />
  <path d="M450 50V350" stroke="#2563EB" stroke-opacity="0.1" stroke-width="1" />
  <path d="M500 50V350" stroke="#2563EB" stroke-opacity="0.1" stroke-width="1" />
  
  <!-- Location markers -->
  <circle cx="200" cy="150" r="12" fill="#2563EB" fill-opacity="0.2" />
  <circle cx="200" cy="150" r="6" fill="#2563EB" />
  
  <circle cx="350" cy="200" r="12" fill="#2563EB" fill-opacity="0.2" />
  <circle cx="350" cy="200" r="6" fill="#2563EB" />
  
  <circle cx="400" cy="300" r="12" fill="#2563EB" fill-opacity="0.2" />
  <circle cx="400" cy="300" r="6" fill="#2563EB" />
  
  <!-- Location lines connecting markers -->
  <path d="M200 150L350 200L400 300" stroke="#2563EB" stroke-width="2" stroke-dasharray="4 4" />
  
  <!-- Main disaster icon -->
  <circle cx="300" cy="200" r="30" fill="#2563EB" fill-opacity="0.3" />
  <path d="M290 190L310 190M290 210L310 210M300 180L300 220" stroke="#2563EB" stroke-width="3" stroke-linecap="round" />
  
  <!-- Emergency service icons -->
  <rect x="150" y="120" width="20" height="20" rx="4" fill="#FFFFFF" />
  <path d="M155 130H165M160 125V135" stroke="#2563EB" stroke-width="2" stroke-linecap="round" />
  
  <rect x="380" y="170" width="20" height="20" rx="4" fill="#FFFFFF" />
  <path d="M385 175L395 185M395 175L385 185" stroke="#2563EB" stroke-width="2" stroke-linecap="round" />
  
  <rect x="420" cy="270" width="20" height="20" rx="4" fill="#FFFFFF" />
  <path d="M425 280H435" stroke="#2563EB" stroke-width="2" stroke-linecap="round" />
  
  <!-- Text elements -->
  <rect x="440" y="110" width="80" height="30" rx="4" fill="#FFFFFF" />
  <text x="450" y="130" font-family="Arial" font-size="12" fill="#2563EB">Disaster</text>
  
  <rect x="120" y="270" width="80" height="30" rx="4" fill="#FFFFFF" />
  <text x="130" y="290" font-family="Arial" font-size="12" fill="#2563EB">Resources</text>
  
  <!-- Alert notification icon -->
  <rect x="170" y="200" width="50" height="40" rx="6" fill="#FFFFFF" />
  <path d="M195 215L195 225M195 210L195 210" stroke="#FF0000" stroke-width="2" stroke-linecap="round" />
  <path d="M185 235H205" stroke="#FF0000" stroke-width="2" stroke-linecap="round" />
  
  <!-- Gradients -->
  <defs>
    <linearGradient id="paint0_linear" x1="0" y1="0" x2="600" y2="400" gradientUnits="userSpaceOnUse">
      <stop stop-color="#EEF2FF" />
      <stop offset="1" stop-color="#DBEAFE" />
    </linearGradient>
  </defs>
</svg>
